# xmcd
#
# Track frame offsets:
#	150
#	17380
#	30370
#	47052
#	66388
#	85118
#	101429
#	114524
#	129912
#	146275
#	164900
#	180537
#
# Disc length: 2632 seconds
#
# Revision: 0
# Processed by: cddbd v1.5.2PL0 Copyright (c) Steve Scherf et al.
# Submitted via: EasyCDDAExtractor 16.0.6.1
#
DISCID=930a460c
DTITLE=Merle Haggard - The Bluegrass Sessions
DYEAR=2007
DGENRE=Bluegrass
TTITLE0=Runaway Mama
TTITLE1=Pray
TTITLE2=What Happened?
TTITLE3=Jimmie Rodgers Blues
TTITLE4=Learning To Live With Myself
TTITLE5=Mama's Hungry Eyes
TTITLE6=I Wonder Where To Find You
TTITLE7=Holding Things Together
TTITLE8=Big City
TTITLE9=Momma's Prayers
TTITLE10=Wouldn't That Be Something
TTITLE11=Blues Stay Away From Me
EXTD=
EXTT0=
EXTT1=
EXTT2=
EXTT3=
EXTT4=
EXTT5=
EXTT6=
EXTT7=
EXTT8=
EXTT9=
EXTT10=
EXTT11=
PLAYORDER=
